HIERARCHY
ROOT Hips
{
	OFFSET 18.2750 44.7772 -17.1432
	CHANNELS 6 Xposition Yposition Zposition Zrotation Xrotation Yrotation
	JOINT Chest
	{
		OFFSET -0.7476 5.6204 -0.7643
		CHANNELS 3 Zrotation Xrotation Yrotation
		JOINT Chest2
		{
			OFFSET 0.0000 4.2978 0.0000
			CHANNELS 3 Zrotation Xrotation Yrotation
			JOINT Neck
			{
				OFFSET 0.0000 10.0034 0.0000
				CHANNELS 3 Zrotation Xrotation Yrotation
				JOINT Head
				{
					OFFSET 0.0000 2.1739 0.0000
					CHANNELS 3 Zrotation Xrotation Yrotation
					End Site
					{
						OFFSET 0.0000 9.0866 0.0000
					}
				}
			}
			JOINT LeftCollar
			{
				OFFSET 2.4168 5.4927 0.5330
				CHANNELS 3 Zrotation Xrotation Yrotation
				JOINT LeftShoulder
				{
					OFFSET 5.5084 0.0000 0.0000
					CHANNELS 3 Zrotation Xrotation Yrotation
					JOINT LeftElbow
					{
						OFFSET 0.0000 -11.5513 0.0000
						CHANNELS 3 Zrotation Xrotation Yrotation
						JOINT LeftWrist
						{
							OFFSET 0.0000 -11.1601 0.0000
							CHANNELS 3 Zrotation Xrotation Yrotation
							End Site
							{
								OFFSET 0.0000 -2.1739 0.0000
							}
						}
					}
				}
			}
			JOINT RightCollar
			{
				OFFSET -2.5920 6.4306 1.6526
				CHANNELS 3 Zrotation Xrotation Yrotation
				JOINT RightShoulder
				{
					OFFSET -4.4088 0.0000 0.0000
					CHANNELS 3 Zrotation Xrotation Yrotation
					JOINT RightElbow
					{
						OFFSET 0.0000 -10.4656 0.0000
						CHANNELS 3 Zrotation Xrotation Yrotation
						JOINT RightWrist
						{
							OFFSET 0.0000 -12.3215 0.0000
							CHANNELS 3 Zrotation Xrotation Yrotation
							End Site
							{
								OFFSET 0.0000 -2.1739 0.0000
							}
						}
					}
				}
			}
		}
	}
	JOINT LeftHip
	{
		OFFSET 2.1688 -2.5378 -0.2691
		CHANNELS 3 Zrotation Xrotation Yrotation
		JOINT LeftKnee
		{
			OFFSET 0.0000 -20.2804 0.0000
			CHANNELS 3 Zrotation Xrotation Yrotation
			JOINT LeftAnkle
			{
				OFFSET 0.0000 -16.7325 0.0000
				CHANNELS 3 Zrotation Xrotation Yrotation
				End Site
				{
					OFFSET 0.0000 0.0000 8.6021
				}
			}
		}
	}
	JOINT RightHip
	{
		OFFSET -2.0800 -2.6839 -0.0441
		CHANNELS 3 Zrotation Xrotation Yrotation
		JOINT RightKnee
		{
			OFFSET 0.0000 -19.8979 0.0000
			CHANNELS 3 Zrotation Xrotation Yrotation
			JOINT RightAnkle
			{
				OFFSET 0.0000 -16.8381 0.0000
				CHANNELS 3 Zrotation Xrotation Yrotation
				End Site
				{
					OFFSET 0.0000 0.0000 7.0845
				}
			}
		}
	}
}
MOTION
Frames: 25
Frame Time: 0.016667
18.2750 44.7772 -17.1432 -0.0000 0.0000 -0.0000 -0.0000 0.0000 -0.0000 -0.0000 0.0000 -0.0000 -0.0000 0.0000 -0.0000 -0.0000 0.0000 -0.0000 16.0545 1.1647 5.1922 82.3392 -9.6474 0.4645 6.5325 4.3184 -0.4940 0.5804 0.0000 -0.0000 -14.1783 -0.8528 3.6222 -78.3796 -2.6178 0.1069 -4.7163 3.4634 0.5207 17.5819 -2.6389 -0.8651 5.0411 -9.2043 12.8003 7.1245 29.7563 -5.5523 -0.3963 20.5975 -5.7331 -7.9824 -7.3111 -12.7127 1.4643 25.1515 -0.0843 -5.9391 26.5801 8.8490
18.2762 44.7771 -17.1438 -0.0000 0.0000 -0.0000 -0.0000 0.0000 -0.0000 -0.0000 0.0000 -0.0000 0.0319 0.1099 -0.0019 -0.1328 0.2902 0.4595 16.0545 1.1647 5.1922 82.2628 -9.7104 0.4501 6.6087 4.3805 -0.4997 0.5804 0.0000 -0.0000 -14.1783 -0.8528 3.6222 -78.2521 -2.7638 0.1186 -4.8439 3.6096 0.5272 17.6459 -2.5798 -0.4229 5.0411 -9.2043 12.8003 7.1245 29.7563 -5.5523 -0.3963 20.5975 -5.7331 -7.9737 -7.2761 -12.7140 2.2104 24.9536 -0.3200 -9.7000 26.7890 8.1016
18.2771 44.7812 -17.1439 -0.2955 0.0067 0.0016 0.5148 -0.1313 0.0236 -0.2192 0.1247 -0.0246 -0.1245 0.1692 0.0775 -0.1015 0.3331 0.6801 16.0545 1.1647 5.1922 82.3392 -9.6474 0.4645 6.5325 4.3184 -0.4940 0.5804 0.0000 -0.0000 -14.1783 -0.8528 3.6222 -78.3796 -2.6178 0.1069 -4.4733 3.3600 0.5092 17.4006 -2.4796 -0.4654 5.3365 -9.2111 12.7993 7.1245 29.7563 -5.5523 -0.3963 20.5975 -5.7331 -7.6872 -7.3175 -12.7152 2.2146 25.0223 -0.3273 -9.6637 26.5349 8.0207
18.2830 44.7818 -17.1419 -0.0000 0.0000 -0.0000 0.1779 -0.1588 0.0234 -0.1778 0.1589 -0.0229 -0.2800 0.2898 0.1639 -0.1764 0.4252 1.1622 16.0153 1.3657 4.5454 82.4086 -9.0325 0.7561 6.5325 4.3184 -0.4940 0.5804 0.0000 -0.0000 -14.1783 -0.8528 3.6222 -78.3796 -2.6178 0.1069 -4.3307 3.2983 0.5029 17.5509 -2.1713 0.0230 5.0411 -9.2043 12.8003 7.1245 29.7563 -5.5523 -0.3963 20.5975 -5.7331 -7.9824 -7.3111 -12.7127 2.2292 24.9902 -0.3296 -9.5791 26.5720 8.0160
18.2784 44.7812 -17.1431 -0.0000 0.0000 -0.0000 0.0846 -0.0816 0.0114 -0.0846 0.0817 -0.0112 0.2869 0.1228 1.3410 -0.2847 0.3308 0.3260 16.0545 1.1647 5.1922 82.3392 -9.6474 0.4645 6.5325 4.3184 -0.4940 0.5804 0.0000 -0.0000 -14.1783 -0.8528 3.6222 -78.4961 -2.4804 0.0964 -4.1269 3.1250 0.4944 16.8799 -1.7845 0.4164 5.0411 -9.2043 12.8003 7.1245 29.7563 -5.5523 -0.3963 20.5975 -5.7331 -7.9824 -7.3111 -12.7127 2.2180 25.0037 -0.3269 -9.6473 26.5548 8.0384
18.2803 44.7811 -17.1430 -0.0000 0.0000 -0.0000 -0.0004 -0.0897 0.0045 0.0004 0.0897 -0.0045 0.4834 0.1519 1.9653 -0.3934 0.4630 0.4766 16.0545 1.1647 5.1922 82.3392 -9.6474 0.4645 6.5325 4.3184 -0.4940 0.5804 0.0000 -0.0000 -14.1783 -0.8528 3.6222 -78.5031 -2.4738 0.0959 -4.1200 2.9661 0.4929 17.3188 -2.1343 0.4302 5.0411 -9.2043 12.8003 7.1245 29.7563 -5.5523 -0.3963 20.5975 -5.7331 -7.9824 -7.3111 -12.7127 2.2156 24.9931 -0.3253 -9.6494 26.5652 8.0410
18.2823 44.7838 -17.1437 -0.0000 0.0000 -0.0000 -0.0003 -0.0794 0.0040 0.0003 0.0794 -0.0040 0.9304 0.2039 3.8876 -0.7893 0.7659 -0.1009 16.0545 1.1647 5.1922 82.3392 -9.6474 0.4645 6.5325 4.3184 -0.4940 0.5804 0.0000 -0.0000 -14.1783 -0.8528 3.6222 -78.2778 -2.5339 0.1075 -4.2183 3.1223 0.4907 16.7480 -1.6103 0.8122 5.0411 -9.2043 12.8003 7.1245 29.7563 -5.5523 -0.3963 20.5975 -5.7331 -7.9824 -7.3111 -12.7127 2.2076 25.0035 -0.3234 -9.6420 26.5546 8.0315
18.2861 44.7865 -17.1448 -0.0000 0.0000 -0.0000 -0.0000 0.0000 -0.0000 -0.0000 0.0000 -0.0000 1.2198 0.1470 4.9849 -0.8442 0.6315 -0.1905 16.0545 1.1647 5.1922 82.3392 -9.6474 0.4645 6.5325 4.3184 -0.4940 0.5804 0.0000 -0.0000 -14.1783 -0.8528 3.6222 -78.3635 -2.3981 0.0982 -3.9278 2.9339 0.4793 16.4728 -1.4101 1.0479 5.0411 -9.2043 12.8003 7.1245 29.7563 -5.5523 -0.3963 20.5975 -5.7331 -7.9824 -7.3111 -12.7127 2.1981 25.0000 -0.3200 -9.6596 26.5569 8.0489
18.2888 44.7895 -17.1469 -0.0000 0.0000 -0.0000 -0.0825 0.0000 -0.0070 0.0825 0.0000 0.0070 1.4847 0.1205 6.2131 -1.3924 1.6860 -0.1025 16.0545 1.1647 5.1922 82.3286 -9.8214 0.4570 6.5455 4.4919 -0.5082 0.5804 0.0000 -0.0000 -14.1783 -0.8528 3.6222 -78.3005 -2.3384 0.0982 -3.8204 2.8116 0.4718 16.3648 -0.9019 1.5165 5.0411 -9.2043 12.8003 7.0563 29.7008 -5.5286 -0.3466 20.6584 -5.7220 -7.9824 -7.3111 -12.7127 2.1762 25.0023 -0.3128 -9.6446 26.5541 8.0444
18.2928 44.7884 -17.1487 -0.0000 0.0000 -0.0000 -0.0000 0.0000 -0.0000 -0.0000 0.0000 -0.0000 1.6979 0.1727 7.2749 -1.6911 1.3962 -0.1238 16.0273 1.3072 4.7374 82.3671 -9.4492 0.6599 6.3748 4.5800 -0.4987 0.9817 -0.0129 -0.4195 -14.1783 -0.8528 3.6222 -78.1667 -2.4355 0.1075 -3.8787 2.7257 0.4708 16.2904 -0.2021 2.1453 5.0411 -9.2043 12.8003 7.0504 29.6760 -5.5278 -0.3447 20.6836 -5.7195 -7.9824 -7.3111 -12.7127 2.1593 25.0127 -0.3079 -9.6449 26.5427 8.0350
18.2959 44.7916 -17.1502 -0.0000 0.0000 -0.0000 -0.0000 0.0000 -0.0000 -0.0000 0.0000 -0.0000 1.7578 0.1590 7.9581 -1.6208 1.4115 0.6889 16.0545 1.1647 5.1922 82.3041 -9.9333 0.4493 6.3542 4.6052 -0.5002 0.6039 -0.2549 -0.8067 -14.1783 -0.8528 3.6222 -77.9223 -2.7129 0.1303 -4.3716 3.0341 0.4888 17.8733 -1.3089 2.3976 5.0196 -9.1456 12.8010 7.0471 29.5794 -5.5224 -0.3419 20.8406 -5.6979 -7.9824 -7.3111 -12.7127 2.1451 25.0319 -0.3047 -9.6280 26.5236 8.0409
18.2986 44.7930 -17.1512 -0.0000 0.0000 -0.0000 0.0003 0.0716 -0.0036 -0.0003 -0.0716 0.0036 1.9137 0.1121 8.7814 -1.6663 0.9530 0.6297 16.0240 1.3205 4.6905 82.3458 -9.5001 0.6725 6.1770 4.6501 -0.4882 1.1003 -0.2674 -1.5564 -14.3644 -0.5706 4.4470 -77.7410 -1.9529 -0.3319 -4.3846 3.0092 0.4878 17.7871 -1.3632 2.5175 5.0196 -9.1455 12.8010 7.0263 29.5518 -5.5158 -0.3281 20.8750 -5.6929 -7.9824 -7.3111 -12.7127 2.1341 25.0256 -0.3005 -9.6304 26.5293 8.0488
18.3018 44.7951 -17.1512 -0.0000 0.0000 -0.0000 0.0004 0.1050 -0.0053 -0.0004 -0.1050 0.0053 1.9224 0.0636 9.1201 -1.6351 0.7180 0.7245 16.0189 1.3441 4.6116 82.3003 -9.4418 0.6983 6.1680 4.6667 -0.4848 1.0640 -0.0677 -1.9903 -14.3949 -0.5243 4.5878 -77.6331 -1.7283 -0.4116 -4.2818 3.0571 0.4782 17.7719 -1.3770 2.8628 5.0175 -9.1399 12.8010 7.0081 29.5292 -5.5091 -0.3141 20.7659 -5.7086 -7.9824 -7.3111 -12.7127 2.1264 25.0134 -0.2969 -9.5956 26.5426 8.0292
18.3044 44.7963 -17.1510 0.0035 0.0872 0.3284 -0.0025 0.0602 -0.3358 -0.0148 -0.0338 -0.0006 2.0823 -0.0098 9.9048 -2.1489 0.9470 0.4813 15.5891 1.2256 4.5961 82.6963 -9.3781 0.7234 6.1785 4.6630 -0.4817 0.3797 -0.4912 -2.2934 -13.7551 -0.6087 4.6209 -78.3162 -1.5874 -0.4050 -4.0506 2.7560 0.4687 17.8154 -0.9572 3.1005 4.9604 -9.2510 12.4773 6.9959 29.5023 -5.5052 -0.3069 20.9333 -5.6843 -8.0295 -7.3516 -13.0528 2.1263 25.0200 -0.2974 -9.6186 26.5351 8.0514
18.3072 44.8002 -17.1510 0.2173 0.0900 0.3483 -0.2157 0.1190 -0.3591 -0.0214 -0.0444 -0.0010 2.3401 -0.1778 10.6257 -2.2329 1.1011 0.3685 16.0323 1.2159 4.5847 82.2084 -9.3556 0.7205 6.1493 4.4994 -0.4758 1.0227 -0.1433 -2.5652 -13.6887 -0.6854 4.5474 -78.3459 -1.6359 -0.3599 -4.0548 2.7452 0.4678 17.8819 -0.8667 3.0280 4.7414 -9.2492 12.4571 6.9842 29.4786 -5.5011 -0.2989 20.9503 -5.6820 -8.2460 -7.3503 -13.0732 2.1249 25.0357 -0.2981 -9.6165 26.5195 8.0536
18.3086 44.8045 -17.1529 0.3103 0.1114 0.4308 -0.3083 0.1293 -0.4435 -0.0252 -0.0472 -0.0014 2.0890 -0.2182 9.8401 -2.0508 0.9620 0.8237 16.0284 1.2240 4.4833 82.3606 -9.5293 5.5903 6.2054 4.2174 -5.2747 1.0498 0.4555 -2.7097 -13.6190 -0.7153 4.5372 -78.4043 -1.5829 -0.3539 -4.0222 2.7135 0.4650 17.8305 -0.9074 2.9271 4.6359 -9.2790 12.3753 6.9697 29.4734 -5.4961 -0.2879 20.9486 -5.6815 -8.3500 -7.3589 -13.1588 2.1243 25.0313 -0.2976 -9.5935 26.5251 8.0599
18.3106 44.8078 -17.1541 0.3961 0.1186 0.4591 -0.4791 0.1443 -0.4801 0.0561 -0.0388 0.0048 2.2600 -0.1808 10.7234 -2.3458 1.0409 0.5279 16.0242 1.2331 4.3765 82.3582 -9.4543 6.3721 6.3368 4.3863 -6.0116 0.7533 0.1076 -2.4284 -13.5442 -0.7566 4.4973 -78.4718 -1.5580 -0.3314 -3.9138 2.6201 0.4599 17.7844 -0.7894 3.0339 4.5445 -9.2854 12.3471 6.9602 29.4655 -5.4924 -0.2806 20.9923 -5.6746 -8.4532 -7.4122 -13.1863 2.1314 25.0858 -0.3048 -9.5662 26.5246 8.0559
18.3101 44.8090 -17.1554 0.4703 0.1305 0.5037 -0.5900 0.1522 -0.5290 -0.0775 -0.0316 0.3222 2.3969 -0.2860 10.3425 -2.2947 1.1477 0.4499 16.1955 1.1462 4.0029 82.3146 -9.3426 6.6447 6.3666 4.3218 -6.2484 0.7676 0.0031 -2.7232 -13.1265 -0.9614 3.4582 -78.7166 -2.2081 0.0753 -3.7276 2.4520 0.4545 17.8944 -0.6993 3.4757 4.4580 -9.2861 12.3030 6.9590 29.4346 -5.4914 -0.2804 21.0094 -5.6730 -8.5435 -7.4537 -13.2313 2.1342 25.1377 -0.3102 -9.5438 26.7225 8.0534
18.3119 44.8098 -17.1549 0.4812 0.1430 0.5536 -0.5831 0.1186 -0.5765 -0.0935 -0.0376 0.3248 2.3707 -0.2832 10.4951 -2.3880 1.2002 0.4630 16.1927 1.1758 3.9745 82.2492 -9.2829 6.3731 6.3384 4.3070 -5.9709 1.0106 0.0323 -2.6713 -12.9962 -0.9246 3.4878 -78.8666 -2.1878 0.0691 -3.7753 2.3736 5.2527 17.9745 -2.2067 -1.0739 4.4346 -9.2900 12.2537 6.9584 29.4112 -5.4905 -0.2801 21.0032 -5.6745 -8.5629 -7.4647 -13.2828 2.1378 25.1660 -0.3137 -9.5348 26.6693 8.0298
18.3115 44.8111 -17.1539 0.4786 0.1601 0.6215 -0.5506 0.0739 -0.6406 -0.1105 -0.0415 0.3060 2.2836 -0.2330 10.5530 -2.4717 1.1861 0.4868 16.1788 1.2142 3.9673 82.1451 -9.1717 5.7235 6.3512 4.2717 -5.3204 0.3912 0.1191 -3.4295 -12.9125 -0.8904 3.5301 -78.9894 -2.1891 0.0650 -3.6902 2.2958 5.6957 18.0711 -2.2505 -1.3817 4.4262 -9.3129 12.1863 6.9514 29.4088 -5.4880 -0.2746 21.0019 -5.6742 -8.6075 -7.4709 -13.3574 2.1731 25.1605 -0.3130 -9.4880 26.7469 8.0327
18.3126 44.8102 -17.1509 0.4539 0.1623 0.6316 -0.4524 0.0594 -0.6440 -0.1771 -0.0624 0.2959 2.2313 -0.1974 10.6070 -2.5432 1.2454 0.4509 16.1751 1.2292 4.0152 81.8938 -8.8845 0.8046 6.3568 4.4522 -0.4531 0.2398 -0.1510 -3.4543 -12.7636 -0.8495 3.5738 -79.1916 -2.1823 0.0579 -3.5957 2.2256 5.4897 18.1521 -2.0218 -1.1397 4.4533 -9.3277 12.1762 6.9438 29.4335 -5.4854 -0.2678 21.0204 -5.6699 -8.5922 -7.4662 -13.3691 2.1767 25.1782 -0.3125 -9.4925 26.6683 8.0172
18.3149 44.8083 -17.1456 0.3906 0.1528 0.5951 -0.3893 0.0482 -0.6061 -0.1593 -0.0791 0.2730 2.1295 -0.1395 10.5925 -2.5743 1.2544 0.4190 15.7446 1.2294 4.0840 82.3768 -8.9976 0.7940 6.2657 4.5194 -0.4556 -0.0195 0.0996 -3.2892 -12.6328 -0.8087 3.6348 -79.3498 -1.9742 4.2539 -3.3205 2.1862 1.5679 18.2993 -2.0867 -1.1988 4.5112 -9.2837 12.2130 6.9583 29.3876 -5.4885 -0.2785 20.9885 -5.6766 -8.5343 -7.4407 -13.3338 2.1863 25.1777 -0.3102 -9.4893 26.4651 8.0147
18.3163 44.8073 -17.1411 0.3217 0.7939 0.4213 -0.3257 -0.6255 -0.4341 0.0159 -0.1402 0.3449 1.8311 -0.0377 10.4096 -2.5884 1.2304 0.4718 15.5783 1.2741 4.0680 82.3239 -9.0390 0.7525 6.3244 4.4845 -0.4548 -0.1105 0.0874 -3.4165 -12.7467 -0.6975 3.5980 -79.2517 -1.9984 0.0479 -3.3521 1.9945 5.3415 17.2324 -0.9640 -1.3727 4.6068 -9.8937 12.4412 6.9629 29.3699 -5.4887 -0.2813 20.9872 -5.6771 -8.4700 -8.0729 -13.2583 2.1983 25.1462 -0.3061 -9.4959 26.4710 8.0082
18.3148 44.8074 -17.1377 0.2785 0.8463 0.4170 -0.2829 -0.6890 -0.4289 0.1705 -0.1269 0.0983 1.6123 -0.0132 10.6559 -2.5734 1.2311 0.4751 15.4292 1.3123 4.3882 82.2729 -9.0646 0.7115 6.3308 4.4319 -0.4491 -0.2247 0.0912 -3.5036 -12.8181 -0.7483 3.8556 -79.4406 -1.8805 0.0366 -3.3630 1.9759 5.2853 18.5510 -2.1852 -0.9730 4.6484 -9.9376 12.4506 6.9655 29.3709 -5.4883 -0.2811 20.8438 -5.6980 -8.4383 -8.1130 -13.2634 2.2096 25.1088 -0.3023 -9.4719 26.4995 8.0078
18.3172 44.8044 -17.1316 0.0179 0.8851 0.3498 0.0849 -0.7656 -0.3456 -0.0284 -0.0835 0.3733 1.5515 0.0057 10.2833 -2.4885 1.1977 0.5508 15.3803 1.2183 4.1147 82.4375 -9.0147 0.7174 6.2636 4.3856 -0.4417 0.1306 0.0773 -3.3948 -12.7689 -0.6955 3.5678 -79.1685 -2.0765 0.0533 -3.4830 2.1153 4.8667 18.1240 -1.4929 -0.9170 4.9142 -9.9508 12.5261 6.9728 29.3522 -5.4887 -0.2852 20.8397 -5.6988 -8.1721 -8.1110 -13.2020 2.2232 25.0470 -0.2959 -9.4993 26.5098 8.0075
